<svg width="871" height="24" viewBox="0 0 871 24" fill="none" xmlns="http://www.w3.org/2000/svg">
<mask id="path-1-inside-1_93_19959" fill="white">
<path d="M0 0H856.103V14H0V0Z"/>
</mask>
<path d="M0 16.5H10.1917V11.5H0V16.5ZM25.4792 16.5H45.8626V11.5H25.4792V16.5ZM61.1502 16.5H81.5336V11.5H61.1502V16.5ZM96.8211 16.5H117.205V11.5H96.8211V16.5ZM132.492 16.5H152.875V11.5H132.492V16.5ZM168.163 16.5H188.546V11.5H168.163V16.5ZM203.834 16.5H224.217V11.5H203.834V16.5ZM239.505 16.5H259.888V11.5H239.505V16.5ZM275.176 16.5H295.559V11.5H275.176V16.5ZM310.847 16.5H331.23V11.5H310.847V16.5ZM346.518 16.5H366.901V11.5H346.518V16.5ZM382.189 16.5H402.572V11.5H382.189V16.5ZM417.86 16.5H438.243V11.5H417.86V16.5ZM453.53 16.5H473.914V11.5H453.53V16.5ZM489.201 16.5H509.585V11.5H489.201V16.5ZM524.872 16.5H545.256V11.5H524.872V16.5ZM560.543 16.5H580.927V11.5H560.543V16.5ZM596.214 16.5H616.598V11.5H596.214V16.5ZM631.885 16.5H652.269V11.5H631.885V16.5ZM667.556 16.5H687.94V11.5H667.556V16.5ZM703.227 16.5H723.611V11.5H703.227V16.5ZM738.898 16.5H759.282V11.5H738.898V16.5ZM774.569 16.5H794.953V11.5H774.569V16.5ZM810.24 16.5H830.623V11.5H810.24V16.5ZM845.911 16.5H856.103V11.5H845.911V16.5ZM0 19H10.1917V9H0V19ZM25.4792 19H45.8626V9H25.4792V19ZM61.1502 19H81.5336V9H61.1502V19ZM96.8211 19H117.205V9H96.8211V19ZM132.492 19H152.875V9H132.492V19ZM168.163 19H188.546V9H168.163V19ZM203.834 19H224.217V9H203.834V19ZM239.505 19H259.888V9H239.505V19ZM275.176 19H295.559V9H275.176V19ZM310.847 19H331.23V9H310.847V19ZM346.518 19H366.901V9H346.518V19ZM382.189 19H402.572V9H382.189V19ZM417.86 19H438.243V9H417.86V19ZM453.53 19H473.914V9H453.53V19ZM489.201 19H509.585V9H489.201V19ZM524.872 19H545.256V9H524.872V19ZM560.543 19H580.927V9H560.543V19ZM596.214 19H616.598V9H596.214V19ZM631.885 19H652.269V9H631.885V19ZM667.556 19H687.94V9H667.556V19ZM703.227 19H723.611V9H703.227V19ZM738.898 19H759.282V9H738.898V19ZM774.569 19H794.953V9H774.569V19ZM810.24 19H830.623V9H810.24V19ZM845.911 19H856.103V9H845.911V19Z" fill="#8DAEBC" mask="url(#path-1-inside-1_93_19959)"/>
<mask id="path-3-inside-2_93_19959" fill="white">
<path d="M14.8975 10H871V24H14.8975V10Z"/>
</mask>
<path d="M14.8975 26.5H25.0892V21.5H14.8975V26.5ZM40.3767 26.5H60.7601V21.5H40.3767V26.5ZM76.0476 26.5H96.431V21.5H76.0476V26.5ZM111.719 26.5H132.102V21.5H111.719V26.5ZM147.39 26.5H167.773V21.5H147.39V26.5ZM183.06 26.5H203.444V21.5H183.06V26.5ZM218.731 26.5H239.115V21.5H218.731V26.5ZM254.402 26.5H274.786V21.5H254.402V26.5ZM290.073 26.5H310.457V21.5H290.073V26.5ZM325.744 26.5H346.128V21.5H325.744V26.5ZM361.415 26.5H381.799V21.5H361.415V26.5ZM397.086 26.5H417.469V21.5H397.086V26.5ZM432.757 26.5H453.14V21.5H432.757V26.5ZM468.428 26.5H488.811V21.5H468.428V26.5ZM504.099 26.5H524.482V21.5H504.099V26.5ZM539.77 26.5H560.153V21.5H539.77V26.5ZM575.441 26.5H595.824V21.5H575.441V26.5ZM611.112 26.5H631.495V21.5H611.112V26.5ZM646.783 26.5H667.166V21.5H646.783V26.5ZM682.454 26.5H702.837V21.5H682.454V26.5ZM718.125 26.5H738.508V21.5H718.125V26.5ZM753.796 26.5H774.179V21.5H753.796V26.5ZM789.467 26.5H809.85V21.5H789.467V26.5ZM825.138 26.5H845.521V21.5H825.138V26.5ZM860.808 26.5H871V21.5H860.808V26.5ZM14.8975 29H25.0892V19H14.8975V29ZM40.3767 29H60.7601V19H40.3767V29ZM76.0476 29H96.431V19H76.0476V29ZM111.719 29H132.102V19H111.719V29ZM147.39 29H167.773V19H147.39V29ZM183.06 29H203.444V19H183.06V29ZM218.731 29H239.115V19H218.731V29ZM254.402 29H274.786V19H254.402V29ZM290.073 29H310.457V19H290.073V29ZM325.744 29H346.128V19H325.744V29ZM361.415 29H381.799V19H361.415V29ZM397.086 29H417.469V19H397.086V29ZM432.757 29H453.14V19H432.757V29ZM468.428 29H488.811V19H468.428V29ZM504.099 29H524.482V19H504.099V29ZM539.77 29H560.153V19H539.77V29ZM575.441 29H595.824V19H575.441V29ZM611.112 29H631.495V19H611.112V29ZM646.783 29H667.166V19H646.783V29ZM682.454 29H702.837V19H682.454V29ZM718.125 29H738.508V19H718.125V29ZM753.796 29H774.179V19H753.796V29ZM789.467 29H809.85V19H789.467V29ZM825.138 29H845.521V19H825.138V29ZM860.808 29H871V19H860.808V29Z" fill="#8DAEBC" mask="url(#path-3-inside-2_93_19959)"/>
</svg>
