<svg width="60" height="66" viewBox="0 0 60 66" fill="none" xmlns="http://www.w3.org/2000/svg">
<g clip-path="url(#clip0_61_1361)">
<path d="M60 38.7393H0V54.5219H9.13043V66.0001H50.8696V54.5219H60V38.7393Z" fill="#57A4FF"/>
<path d="M43.0434 4.30431V0H20.8695V4.30431H16.9564V8.60875H13.0434V12.9131L9.13086 12.9134V34.4352H13.0434V38.7392H46.9564V30.1304H31.3043V25.8261H27.3917V17.2174H31.3043V12.9131H46.9564V8.60875V4.30431H43.0434Z" fill="#FFDA44"/>
<path d="M20.87 4.3042H16.957V8.60851H20.87V4.3042Z" fill="black"/>
<path d="M16.956 8.60864H13.043V12.913H16.956V8.60864Z" fill="black"/>
<path d="M43.043 0H20.8691V4.30431H43.043V0Z" fill="black"/>
<path d="M13.0439 12.9131H9.13086V34.4349H13.0439V12.9131Z" fill="black"/>
<path d="M31.3047 8.60864V12.9129H43.0438H46.957V8.60864V4.3042H43.0438V8.60864H31.3047Z" fill="black"/>
<path d="M31.3046 12.9131H27.3916V17.2174H31.3046V12.9131Z" fill="black"/>
<path d="M31.3046 25.8262H27.3916V30.1305H31.3046V25.8262Z" fill="black"/>
<path d="M27.3915 17.2173H23.4785V25.826H27.3915V17.2173Z" fill="black"/>
<path d="M46.9566 38.7391V34.4347V30.1304H43.0434H31.3043V34.4347H43.0434V38.7391H16.9566V34.4347H13.0434V38.7391H0V43.0434H60V38.7391H46.9566Z" fill="black"/>
<path d="M50.87 61.6956H9.13086V65.9999H50.87V61.6956Z" fill="#9BFBFF"/>
<path d="M36.5218 50.2173H3.91309V54.5216H36.5218V50.2173Z" fill="#9BFBFF"/>
<path d="M56.0868 50.2173H44.3477V54.5216H56.0868V50.2173Z" fill="#9BFBFF"/>
</g>
<defs>
<clipPath id="clip0_61_1361">
<rect width="60" height="66" fill="white"/>
</clipPath>
</defs>
</svg>
