<svg width="30" height="30" viewBox="0 0 30 30" fill="none" xmlns="http://www.w3.org/2000/svg">
<g clip-path="url(#clip0_143_405)">
<path fill-rule="evenodd" clip-rule="evenodd" d="M15 0C23.2787 0 30 6.72129 30 15C30 23.2787 23.2787 30 15 30C6.72129 30 0 23.2787 0 15C0 6.72129 6.72129 0 15 0ZM23.7562 22.9054V22.6101L22.3857 21.2646C22.2647 21.1724 22.2047 21.0208 22.2298 20.8708V10.9849C22.2047 10.8349 22.2647 10.6833 22.3857 10.5911L23.7891 9.24563V8.95025H18.9309L15.4678 17.5892L11.5287 8.95025H6.43248V9.24563L8.07381 11.2228C8.235 11.368 8.31721 11.5813 8.29535 11.7971V19.5664C8.34311 19.8466 8.25481 20.1329 8.05746 20.3375L6.21094 22.5772V22.8725H11.4466V22.5772L9.60018 20.3375C9.40131 20.1333 9.3075 19.8489 9.34576 19.5664V12.8473L13.9414 22.8725H14.4748L18.4221 12.8473V20.838C18.4221 21.0513 18.4221 21.0923 18.2825 21.2317L16.8629 22.6101V22.9054H23.7562Z" fill="#C6D0F5"/>
</g>
<defs>
<clipPath id="clip0_143_405">
<rect width="30" height="30" fill="white"/>
</clipPath>
</defs>
</svg>
