<svg width="34" height="32" viewBox="0 0 34 32" fill="none" xmlns="http://www.w3.org/2000/svg">
<path fill-rule="evenodd" clip-rule="evenodd" d="M28.8094 27.9469H24.227V19.3562C24.227 16.9995 23.2567 15.6847 21.5165 15.6847C19.6229 15.6847 18.499 17.0547 18.499 19.3562V27.9469H13.9166V11.9904H18.499V13.7848C18.499 13.7848 19.9367 11.0818 23.1765 11.0818C26.4174 11.0818 28.8094 13.2008 28.8094 17.5852V27.9469ZM8.69501 9.43847C7.1496 9.43847 5.89746 8.08593 5.89746 6.41786C5.89746 4.75101 7.1496 3.39844 8.69501 3.39844C10.2393 3.39844 11.4914 4.75101 11.4914 6.41786C11.4926 8.08593 10.2393 9.43847 8.69501 9.43847ZM5.89746 27.9469H11.6254V11.9904H5.89746V27.9469Z" fill="#394867"/>
</svg>
