<svg width="34" height="30" viewBox="0 0 34 30" fill="none" xmlns="http://www.w3.org/2000/svg">
<path fill-rule="evenodd" clip-rule="evenodd" d="M17.2338 0.34668C26.2726 0.34668 33.5995 7.10723 33.5995 15.4483C33.5995 22.1191 28.9157 27.7781 22.4168 29.7768C21.5871 29.9256 21.2925 29.454 21.2925 29.0519C21.2925 28.554 21.3122 26.928 21.3122 24.9071C21.3122 23.499 20.7885 22.58 20.2009 22.1116C23.8456 21.7375 27.6751 20.4604 27.6751 14.6601C27.6751 13.0104 27.0401 11.6642 25.9895 10.6067C26.1597 10.2252 26.721 8.68917 25.8291 6.60942C25.8291 6.60942 24.4576 6.20477 21.3334 8.15784C20.0258 7.82349 18.6249 7.65526 17.2338 7.64937C15.8428 7.65526 14.4435 7.82349 13.1375 8.15784C10.01 6.20477 8.63532 6.60942 8.63532 6.60942C7.74666 8.68917 8.308 10.2252 8.47657 10.6067C7.4308 11.6642 6.79091 13.0104 6.79091 14.6601C6.79091 20.4457 10.6123 21.7424 14.2471 22.1239C13.779 22.5009 13.3552 23.1661 13.2079 24.1426C12.275 24.5285 9.90528 25.1964 8.44547 22.8884C8.44547 22.8884 7.57973 21.4374 5.93661 21.3313C5.93661 21.3313 4.34096 21.3122 5.82532 22.249C5.82532 22.249 6.89728 22.713 7.64192 24.4584C7.64192 24.4584 8.60259 27.1537 13.1555 26.2405C13.1637 27.5028 13.1784 28.6925 13.1784 29.0519C13.1784 29.451 12.8773 29.9182 12.0606 29.7782C5.55692 27.7825 0.868164 22.1206 0.868164 15.4483C0.868164 7.10723 8.19671 0.34668 17.2338 0.34668Z" fill="#394867"/>
<path fill-rule="evenodd" clip-rule="evenodd" d="M17.2338 0.34668C26.2726 0.34668 33.5995 7.10723 33.5995 15.4483C33.5995 22.1191 28.9157 27.7781 22.4168 29.7768C21.5871 29.9256 21.2925 29.454 21.2925 29.0519C21.2925 28.554 21.3122 26.928 21.3122 24.9071C21.3122 23.499 20.7885 22.58 20.2009 22.1116C23.8456 21.7375 27.6751 20.4604 27.6751 14.6601C27.6751 13.0104 27.0401 11.6642 25.9895 10.6067C26.1597 10.2252 26.721 8.68917 25.8291 6.60942C25.8291 6.60942 24.4576 6.20477 21.3334 8.15784C20.0258 7.82349 18.6249 7.65526 17.2338 7.64937C15.8428 7.65526 14.4435 7.82349 13.1375 8.15784C10.01 6.20477 8.63532 6.60942 8.63532 6.60942C7.74666 8.68917 8.308 10.2252 8.47657 10.6067C7.4308 11.6642 6.79091 13.0104 6.79091 14.6601C6.79091 20.4457 10.6123 21.7424 14.2471 22.1239C13.779 22.5009 13.3552 23.1661 13.2079 24.1426C12.275 24.5285 9.90528 25.1964 8.44547 22.8884C8.44547 22.8884 7.57973 21.4374 5.93661 21.3313C5.93661 21.3313 4.34096 21.3122 5.82532 22.249C5.82532 22.249 6.89728 22.713 7.64192 24.4584C7.64192 24.4584 8.60259 27.1537 13.1555 26.2405C13.1637 27.5028 13.1784 28.6925 13.1784 29.0519C13.1784 29.451 12.8773 29.9182 12.0606 29.7782C5.55692 27.7825 0.868164 22.1206 0.868164 15.4483C0.868164 7.10723 8.19671 0.34668 17.2338 0.34668Z" fill="#C6D0F5"/>
</svg>
