<svg width="32" height="31" viewBox="0 0 32 31" fill="none" xmlns="http://www.w3.org/2000/svg">
<path fill-rule="evenodd" clip-rule="evenodd" d="M20.9239 16.7517C21.972 19.6366 22.6811 22.6005 23.051 25.6419C26.274 23.6679 28.4612 20.4218 28.8774 16.7517C25.753 16.5484 23.6552 16.566 20.9239 16.7517ZM19.1051 12.3359C19.4134 12.9603 19.7632 13.7499 20.1532 14.7047C22.96 14.4532 26.0921 14.4558 28.9082 14.5874C28.7433 11.9365 27.7367 9.57721 25.8871 7.51116C24.5507 9.40176 22.2911 11.0097 19.1051 12.3359ZM12.9705 3.62162C14.7785 5.39523 16.4539 7.60864 17.9953 10.2596C20.7898 9.14832 22.8969 7.73484 24.3149 6.01969C20.8761 3.32051 16.6389 2.66681 12.9705 3.62162ZM8.25386 25.0277C11.9531 27.7605 16.5403 28.2766 20.6465 26.7823C20.2349 23.4485 19.4334 20.2216 18.2419 17.1027C14.2344 17.9289 10.0033 21.7466 8.25386 25.0277ZM3.66059 12.3945C5.46399 12.5495 10.3933 12.5727 15.4366 11.1369C13.8752 8.50494 12.1582 6.31215 10.2885 4.55754C6.97916 6.14693 4.59158 9.09294 3.66059 12.3945ZM6.49671 23.4483C8.4265 19.863 13.2248 15.974 17.4404 15.085C17.1321 14.4022 16.8347 13.7879 16.5464 13.2425C12.2738 14.5395 7.40303 15.0266 3.29067 14.8219C3.29067 17.9422 3.82861 20.5795 6.49671 23.4483ZM0.701172 15.4068C0.701172 9.91923 3.79623 5.27683 8.37717 2.74433C18.5856 -2.89822 31.5285 4.08805 31.5285 15.4068C31.5285 20.8943 28.4334 25.5368 23.8525 28.0692C19.1174 30.6866 13.1261 30.6939 8.37717 28.0692C3.79161 25.5353 0.701172 20.89 0.701172 15.4068Z" fill="#394867"/>
<path fill-rule="evenodd" clip-rule="evenodd" d="M20.9239 16.7517C21.972 19.6366 22.6811 22.6005 23.051 25.6419C26.274 23.6679 28.4612 20.4218 28.8774 16.7517C25.753 16.5484 23.6552 16.566 20.9239 16.7517ZM19.1051 12.3359C19.4134 12.9603 19.7632 13.7499 20.1532 14.7047C22.96 14.4532 26.0921 14.4558 28.9082 14.5874C28.7433 11.9365 27.7367 9.57721 25.8871 7.51116C24.5507 9.40176 22.2911 11.0097 19.1051 12.3359ZM12.9705 3.62162C14.7785 5.39523 16.4539 7.60864 17.9953 10.2596C20.7898 9.14832 22.8969 7.73484 24.3149 6.01969C20.8761 3.32051 16.6389 2.66681 12.9705 3.62162ZM8.25386 25.0277C11.9531 27.7605 16.5403 28.2766 20.6465 26.7823C20.2349 23.4485 19.4334 20.2216 18.2419 17.1027C14.2344 17.9289 10.0033 21.7466 8.25386 25.0277ZM3.66059 12.3945C5.46399 12.5495 10.3933 12.5727 15.4366 11.1369C13.8752 8.50494 12.1582 6.31215 10.2885 4.55754C6.97916 6.14693 4.59158 9.09294 3.66059 12.3945ZM6.49671 23.4483C8.4265 19.863 13.2248 15.974 17.4404 15.085C17.1321 14.4022 16.8347 13.7879 16.5464 13.2425C12.2738 14.5395 7.40303 15.0266 3.29067 14.8219C3.29067 17.9422 3.82861 20.5795 6.49671 23.4483ZM0.701172 15.4068C0.701172 9.91923 3.79623 5.27683 8.37717 2.74433C18.5856 -2.89822 31.5285 4.08805 31.5285 15.4068C31.5285 20.8943 28.4334 25.5368 23.8525 28.0692C19.1174 30.6866 13.1261 30.6939 8.37717 28.0692C3.79161 25.5353 0.701172 20.89 0.701172 15.4068Z" fill="#C6D0F5"/>
</svg>
