<svg width="27" height="25" viewBox="0 0 27 25" fill="none" xmlns="http://www.w3.org/2000/svg">
<g clip-path="url(#clip0_143_204)">
<path fill-rule="evenodd" clip-rule="evenodd" d="M7.82745 0.26886C5.69613 0.360217 3.84883 0.855242 2.35717 2.26634C0.860304 3.68484 0.345698 5.44673 0.249293 7.45042C0.189366 8.70103 -0.161056 18.1491 0.855095 20.6268C1.54035 22.2984 2.88997 23.5837 4.66563 24.2367C5.49418 24.5429 6.44001 24.7502 7.82745 24.8107C19.4285 25.3094 23.7289 25.0379 25.5423 20.6268C25.8641 19.8416 26.0856 18.9439 26.1468 17.6291C26.677 6.57983 26.0609 4.18483 24.039 2.26634C22.4353 0.746597 20.5489 -0.287923 7.82745 0.26886ZM7.93425 22.5885C6.66406 22.5341 5.97491 22.3331 5.51504 22.164C4.35819 21.7368 3.48925 20.9147 3.04241 19.8221C2.26857 17.9394 2.52522 8.99753 2.59427 7.55063C2.66201 6.13335 2.96425 4.83806 4.01687 3.83808C5.31963 2.60352 7.00278 1.99847 18.4631 2.48983C19.9587 2.55402 21.3253 2.84056 22.3806 3.83808C23.6833 5.07263 24.3295 6.68393 23.8032 17.5295C23.7458 18.7332 23.5335 19.3863 23.355 19.8221C22.176 22.6925 19.4637 23.0909 7.93425 22.5885ZM18.5895 5.94912C18.5895 6.76641 19.2891 7.43098 20.1528 7.43098C21.0166 7.43098 21.7175 6.76641 21.7175 5.94912C21.7175 5.13185 21.0166 4.46787 20.1528 4.46787C19.2891 4.46787 18.5895 5.13185 18.5895 5.94912ZM6.50904 12.5392C6.50904 16.0403 9.50409 18.879 13.1987 18.879C16.8933 18.879 19.8884 16.0403 19.8884 12.5392C19.8884 9.03795 16.8933 6.20116 13.1987 6.20116C9.50409 6.20116 6.50904 9.03795 6.50904 12.5392ZM8.85661 12.5392C8.85661 10.2676 10.8003 8.42456 13.1987 8.42456C15.5971 8.42456 17.5408 10.2676 17.5408 12.5392C17.5408 14.812 15.5971 16.6556 13.1987 16.6556C10.8003 16.6556 8.85661 14.812 8.85661 12.5392Z" fill="#394867"/>
<path fill-rule="evenodd" clip-rule="evenodd" d="M7.82745 0.26886C5.69613 0.360217 3.84883 0.855242 2.35717 2.26634C0.860304 3.68484 0.345698 5.44673 0.249293 7.45042C0.189366 8.70103 -0.161056 18.1491 0.855095 20.6268C1.54035 22.2984 2.88997 23.5837 4.66563 24.2367C5.49418 24.5429 6.44001 24.7502 7.82745 24.8107C19.4285 25.3094 23.7289 25.0379 25.5423 20.6268C25.8641 19.8416 26.0856 18.9439 26.1468 17.6291C26.677 6.57983 26.0609 4.18483 24.039 2.26634C22.4353 0.746597 20.5489 -0.287923 7.82745 0.26886ZM7.93425 22.5885C6.66406 22.5341 5.97491 22.3331 5.51504 22.164C4.35819 21.7368 3.48925 20.9147 3.04241 19.8221C2.26857 17.9394 2.52522 8.99753 2.59427 7.55063C2.66201 6.13335 2.96425 4.83806 4.01687 3.83808C5.31963 2.60352 7.00278 1.99847 18.4631 2.48983C19.9587 2.55402 21.3253 2.84056 22.3806 3.83808C23.6833 5.07263 24.3295 6.68393 23.8032 17.5295C23.7458 18.7332 23.5335 19.3863 23.355 19.8221C22.176 22.6925 19.4637 23.0909 7.93425 22.5885ZM18.5895 5.94912C18.5895 6.76641 19.2891 7.43098 20.1528 7.43098C21.0166 7.43098 21.7175 6.76641 21.7175 5.94912C21.7175 5.13185 21.0166 4.46787 20.1528 4.46787C19.2891 4.46787 18.5895 5.13185 18.5895 5.94912ZM6.50904 12.5392C6.50904 16.0403 9.50409 18.879 13.1987 18.879C16.8933 18.879 19.8884 16.0403 19.8884 12.5392C19.8884 9.03795 16.8933 6.20116 13.1987 6.20116C9.50409 6.20116 6.50904 9.03795 6.50904 12.5392ZM8.85661 12.5392C8.85661 10.2676 10.8003 8.42456 13.1987 8.42456C15.5971 8.42456 17.5408 10.2676 17.5408 12.5392C17.5408 14.812 15.5971 16.6556 13.1987 16.6556C10.8003 16.6556 8.85661 14.812 8.85661 12.5392Z" fill="#C6D0F5"/>
</g>
<defs>
<clipPath id="clip0_143_204">
<rect width="26.1851" height="24.8758" fill="white" transform="translate(0.144531 0.116699)"/>
</clipPath>
</defs>
</svg>
