<svg width="33" height="31" viewBox="0 0 33 31" fill="none" xmlns="http://www.w3.org/2000/svg">
<path fill-rule="evenodd" clip-rule="evenodd" d="M16.4262 0.57959C7.74149 0.57959 0.701172 7.38957 0.701172 15.7901C0.701172 24.1906 7.74149 31.0006 16.4262 31.0006C25.1108 31.0006 32.1512 24.1906 32.1512 15.7901C32.1512 7.38957 25.1108 0.57959 16.4262 0.57959ZM8.98644 13.4176C14.0828 12.0416 19.215 12.735 23.6652 14.5941C24.4624 14.9271 25.388 14.5719 25.7322 13.8007C26.0766 13.0296 25.7094 12.1343 24.9122 11.8013C19.9273 9.71888 14.052 8.89153 8.14091 10.4875C7.30441 10.7133 6.81559 11.5523 7.04907 12.3615C7.28256 13.1706 8.14993 13.6435 8.98644 13.4176ZM9.73485 17.7772C14.1199 16.5944 19.1642 17.3334 21.9681 18.9988C22.7083 19.4385 23.6767 19.2145 24.1311 18.4987C24.5856 17.7827 24.3539 16.846 23.6139 16.4064C19.9781 14.2469 14.0149 13.4647 8.89011 14.8469C8.05355 15.0726 7.56449 15.9115 7.79777 16.7207C8.03104 17.5299 8.8983 18.0029 9.73485 17.7772ZM10.4137 21.9662C12.1902 21.571 14.1665 21.5657 15.9043 21.8266C17.6972 22.0956 18.9893 22.6095 19.5498 23.0524C20.2223 23.5838 21.213 23.4873 21.7625 22.8367C22.3119 22.1861 22.212 21.2279 21.5395 20.6964C20.3403 19.7487 18.3937 19.1217 16.3865 18.8204C14.3241 18.5108 11.9385 18.5055 9.70889 19.0015C8.86251 19.1897 8.33417 20.006 8.52878 20.8246C8.72341 21.6434 9.56731 22.1545 10.4137 21.9662Z" fill="#394867"/>
<path fill-rule="evenodd" clip-rule="evenodd" d="M16.4262 0.57959C7.74149 0.57959 0.701172 7.38957 0.701172 15.7901C0.701172 24.1906 7.74149 31.0006 16.4262 31.0006C25.1108 31.0006 32.1512 24.1906 32.1512 15.7901C32.1512 7.38957 25.1108 0.57959 16.4262 0.57959ZM8.98644 13.4176C14.0828 12.0416 19.215 12.735 23.6652 14.5941C24.4624 14.9271 25.388 14.5719 25.7322 13.8007C26.0766 13.0296 25.7094 12.1343 24.9122 11.8013C19.9273 9.71888 14.052 8.89153 8.14091 10.4875C7.30441 10.7133 6.81559 11.5523 7.04907 12.3615C7.28256 13.1706 8.14993 13.6435 8.98644 13.4176ZM9.73485 17.7772C14.1199 16.5944 19.1642 17.3334 21.9681 18.9988C22.7083 19.4385 23.6767 19.2145 24.1311 18.4987C24.5856 17.7827 24.3539 16.846 23.6139 16.4064C19.9781 14.2469 14.0149 13.4647 8.89011 14.8469C8.05355 15.0726 7.56449 15.9115 7.79777 16.7207C8.03104 17.5299 8.8983 18.0029 9.73485 17.7772ZM10.4137 21.9662C12.1902 21.571 14.1665 21.5657 15.9043 21.8266C17.6972 22.0956 18.9893 22.6095 19.5498 23.0524C20.2223 23.5838 21.213 23.4873 21.7625 22.8367C22.3119 22.1861 22.212 21.2279 21.5395 20.6964C20.3403 19.7487 18.3937 19.1217 16.3865 18.8204C14.3241 18.5108 11.9385 18.5055 9.70889 19.0015C8.86251 19.1897 8.33417 20.006 8.52878 20.8246C8.72341 21.6434 9.56731 22.1545 10.4137 21.9662Z" fill="#C6D0F5"/>
</svg>
