<svg width="31" height="30" viewBox="0 0 31 30" fill="none" xmlns="http://www.w3.org/2000/svg">
<path d="M13.3455 19.1649C12.9468 19.5143 12.4856 19.689 11.9619 19.689C11.6167 19.689 11.3042 19.5983 11.0245 19.4168C10.7508 19.2287 10.5365 18.97 10.3818 18.6408L11.087 14.1457C11.2894 13.8366 11.5631 13.5813 11.9083 13.3797C12.2594 13.1781 12.5957 13.0773 12.917 13.0773C13.4467 13.0773 13.8603 13.2923 14.1579 13.7224C14.4554 14.1524 14.6042 14.7437 14.6042 15.4962C14.6042 16.3294 14.4941 17.0618 14.2739 17.6934C14.0537 18.325 13.7443 18.8155 13.3455 19.1649Z" fill="#C6D0F5"/>
<path fill-rule="evenodd" clip-rule="evenodd" d="M15.5 30C24.0604 30 31 23.2843 31 15C31 6.71573 24.0604 0 15.5 0C6.93959 0 0 6.71573 0 15C0 23.2843 6.93959 30 15.5 30ZM10.8996 21.4628C11.2804 21.6778 11.6881 21.7853 12.1225 21.7853C12.9974 21.7853 13.7681 21.5132 14.4346 20.969C15.1011 20.418 15.6189 19.6587 15.9879 18.6912C16.3628 17.7169 16.5503 16.5914 16.5503 15.3148C16.5503 14.4615 16.4253 13.7123 16.1753 13.0672C15.9254 12.4155 15.5772 11.9082 15.1309 11.5453C14.6846 11.1825 14.1668 11.0011 13.5776 11.0011C13.1789 11.0011 12.7891 11.0918 12.4082 11.2732C12.0333 11.4479 11.706 11.6965 11.4262 12.019L12.2118 6.98975L10.1497 7.75574L8.01617 21.5435H9.89082L10.0336 20.6364C10.23 20.9723 10.5187 21.2478 10.8996 21.4628ZM20.103 11.243L18.4962 21.5435H20.4244L22.0312 11.243H20.103ZM20.6208 9.37842C20.8053 9.58671 21.0314 9.69086 21.2992 9.69086C21.6444 9.69086 21.9479 9.53968 22.2098 9.23731C22.4776 8.93495 22.6115 8.5822 22.6115 8.17905C22.6115 7.86325 22.5222 7.60456 22.3437 7.40298C22.1711 7.20141 21.9449 7.10062 21.6652 7.10062C21.3141 7.10062 21.0076 7.2518 20.7458 7.55416C20.4839 7.85653 20.353 8.20928 20.353 8.61243C20.353 8.91479 20.4423 9.17012 20.6208 9.37842Z" fill="#C6D0F5"/>
</svg>
