<svg width="33" height="27" viewBox="0 0 33 27" fill="none" xmlns="http://www.w3.org/2000/svg">
<path fill-rule="evenodd" clip-rule="evenodd" d="M9.92323 26.3464C22.2748 26.3464 29.0305 16.3764 29.0305 7.73042C29.0305 7.44723 29.0305 7.16533 29.0109 6.8847C30.3251 5.95851 31.4596 4.81172 32.3612 3.498C31.1356 4.02713 29.8355 4.37412 28.5041 4.52741C29.9061 3.70973 30.9553 2.42366 31.4565 0.908559C30.1384 1.67067 28.6961 2.20776 27.1923 2.49667C25.1107 0.340147 21.803 -0.187661 19.1241 1.20919C16.4451 2.60605 15.0611 5.58019 15.7482 8.46389C10.3486 8.20015 5.31791 5.7154 1.90798 1.62799C0.125596 4.61752 1.03601 8.44202 3.98708 10.362C2.91839 10.3311 1.873 10.0502 0.939136 9.54303C0.939136 9.56983 0.939136 9.59789 0.939136 9.62594C0.940011 12.7405 3.19334 15.4229 6.32671 16.0396C5.33805 16.3023 4.30075 16.3407 3.29448 16.1518C4.17423 18.8172 6.69537 20.643 9.56843 20.6956C7.19048 22.5163 4.25294 23.5048 1.22848 23.5019C0.694179 23.5008 0.160398 23.4693 -0.370117 23.4074C2.70091 25.3275 6.27424 26.346 9.92323 26.3413" fill="#394867"/>
<path fill-rule="evenodd" clip-rule="evenodd" d="M9.92323 26.3464C22.2748 26.3464 29.0305 16.3764 29.0305 7.73042C29.0305 7.44723 29.0305 7.16533 29.0109 6.8847C30.3251 5.95851 31.4596 4.81172 32.3612 3.498C31.1356 4.02713 29.8355 4.37412 28.5041 4.52741C29.9061 3.70973 30.9553 2.42366 31.4565 0.908559C30.1384 1.67067 28.6961 2.20776 27.1923 2.49667C25.1107 0.340147 21.803 -0.187661 19.1241 1.20919C16.4451 2.60605 15.0611 5.58019 15.7482 8.46389C10.3486 8.20015 5.31791 5.7154 1.90798 1.62799C0.125596 4.61752 1.03601 8.44202 3.98708 10.362C2.91839 10.3311 1.873 10.0502 0.939136 9.54303C0.939136 9.56983 0.939136 9.59789 0.939136 9.62594C0.940011 12.7405 3.19334 15.4229 6.32671 16.0396C5.33805 16.3023 4.30075 16.3407 3.29448 16.1518C4.17423 18.8172 6.69537 20.643 9.56843 20.6956C7.19048 22.5163 4.25294 23.5048 1.22848 23.5019C0.694179 23.5008 0.160398 23.4693 -0.370117 23.4074C2.70091 25.3275 6.27424 26.346 9.92323 26.3413" fill="#C6D0F5"/>
</svg>
